<svg id="Layer_1" enable-background="new 0 0 256 256" height="512" viewBox="0 0 256 256" width="512" xmlns="http://www.w3.org/2000/svg"><g><g><path d="m155.101 4c9.186 0 17.134 6.981 17.691 16.15.023.383.035.77.035 1.159v1.856c10.954 0 19.584 9.335 18.727 20.255l-3.199 40.75h-60.341-.028-60.341l-3.199-40.75c-.857-10.92 7.773-20.255 18.727-20.255v-1.856c0-.389.012-.775.035-1.159.557-9.169 8.505-16.15 17.691-16.15z" fill="#fcc24c"/></g><g><path d="m175.456 23.369c4.739 3.991 7.633 10.336 7.121 17.305l-3.199 43.495h8.977l3.199-40.75c.788-10.027-6.432-18.696-16.098-20.05z" fill="#dea42e"/></g><g><path d="m80.544 23.369c-4.739 3.991-7.633 10.336-7.121 17.305l3.199 43.495h-8.977l-3.199-40.75c-.788-10.027 6.432-18.696 16.098-20.05z" fill="#fce06a"/></g><g><path d="m188.354 86.169h-120.708c-1.044 0-1.912-.803-1.994-1.843l-3.2-40.75c-.452-5.759 1.538-11.495 5.46-15.737 3.467-3.75 8.216-6.086 13.262-6.578.001-.414.014-.825.039-1.233.613-10.109 9.262-18.028 19.686-18.028h54.201c10.425 0 19.073 7.919 19.688 18.028.025.408.038.819.039 1.233 5.046.492 9.795 2.828 13.262 6.578 3.922 4.242 5.912 9.978 5.46 15.737l-3.2 40.75c-.082 1.04-.951 1.843-1.995 1.843zm-118.86-4h117.012l3.055-38.906c.371-4.719-1.195-9.232-4.409-12.708-3.213-3.476-7.591-5.39-12.324-5.39-1.104 0-2-.896-2-2v-1.855c0-.348-.011-.694-.031-1.037-.488-8.004-7.382-14.273-15.696-14.273h-54.201c-8.314 0-15.208 6.269-15.695 14.271-.021.343-.031.689-.031 1.037v1.855c0 1.104-.896 2-2 2-4.733 0-9.111 1.915-12.324 5.39-3.214 3.476-4.78 7.989-4.409 12.708z" fill="#690589"/></g><g><path d="m104.47 160.531v-44.356h47.273v44.356h42.682c16.534.021 29.92 13.598 29.899 30.132v61.337h-192.648v-61.584c.021-16.534 13.52-29.92 30.054-29.899z" fill="#526faa"/></g><g><path d="m101.296 198.613 26.591 38.672 26.817-38.672-26.817-19.696z" fill="#f4efed"/></g><g><path d="m127.887 178.917-17.203 12.742 17.203 12.741 17.348-12.741z" fill="#8852a8"/></g><g><path d="m127.887 204.4-12.221 15.112 12.221 17.773 12.325-17.773z" fill="#8852a8"/></g><g><path d="m104.47 149.791 23.417 29.126 23.856-29.126v-33.616h-47.273z" fill="#ff9f70"/></g><g><g><path d="m194.425 160.531h-10.502c16.534.021 29.92 13.585 29.899 30.118v61.351h10.502v-61.337c.021-16.534-13.365-30.111-29.899-30.132z" fill="#34518c"/></g></g><g><g><path d="m61.73 160.517 10.502.014c-16.534-.021-30.033 13.365-30.054 29.899v61.57h-10.502v-61.584c.021-16.534 13.52-29.92 30.054-29.899z" fill="#708dc8"/></g></g><g><path d="m68.866 252.949c-1.104 0-2-.896-2-2v-27.328c0-1.104.896-2 2-2s2 .896 2 2v27.328c0 1.105-.895 2-2 2z" fill="#690589"/></g><g><path d="m187.134 252.949c-1.104 0-2-.896-2-2v-27.328c0-1.104.896-2 2-2s2 .896 2 2v27.328c0 1.105-.896 2-2 2z" fill="#690589"/></g><g><path d="m224.324 254h-192.648c-1.104 0-2-.896-2-2v-61.584c.011-8.53 3.358-16.546 9.425-22.576 6.05-6.012 14.071-9.322 22.589-9.322h.043l40.738.013v-42.355c0-1.104.896-2 2-2h47.272c1.104 0 2 .896 2 2v42.356h40.683c8.526.011 16.544 3.373 22.578 9.466 6.021 6.08 9.331 14.131 9.32 22.668v61.334c0 1.104-.895 2-2 2zm-190.648-4h188.648v-59.337c.01-7.477-2.889-14.526-8.162-19.851-5.279-5.331-12.289-8.271-19.739-8.281h-42.68c-1.104 0-2-.896-2-2v-42.356h-43.272v42.356c0 .531-.211 1.04-.586 1.415s-.884.585-1.414.585c0 0 0 0-.001 0l-42.741-.013c-.012 0-.024 0-.037 0-7.456 0-14.476 2.897-19.771 8.16-5.308 5.274-8.235 12.285-8.245 19.741z" fill="#690589"/></g><g><path d="m81.187 75.71h-3.345c-8.648 0-15.659 7.011-15.659 15.659s7.01 15.658 15.659 15.658h3.345z" fill="#ffbd8e"/></g><g><path d="m178.246 75.71h-3.346v31.317h3.345c8.648 0 15.658-7.01 15.658-15.658.001-8.648-7.009-15.659-15.657-15.659z" fill="#e18152"/></g><g><path d="m128.044 155.311c-25.878 0-46.857-21.251-46.857-47.465v-32.86c0-26.214 20.978-47.465 46.857-47.465 25.878 0 46.857 21.251 46.857 47.465v32.86c-.001 26.214-20.979 47.465-46.857 47.465z" fill="#ff9f70"/></g><g><path d="m128.044 27.52c-1.802 0-3.576.113-5.325.314 23.369 2.679 41.532 22.762 41.532 47.151v32.86c0 24.389-18.162 44.472-41.532 47.151 1.749.201 3.523.314 5.325.314 25.878 0 46.857-21.251 46.857-47.465v-32.86c-.001-26.214-20.979-47.465-46.857-47.465z" fill="#e18152"/></g><g><path d="m128.044 27.52c1.801 0 3.576.113 5.325.314-23.37 2.679-41.532 22.762-41.532 47.151v32.86c0 24.389 18.162 44.472 41.532 47.151-1.749.201-3.523.314-5.325.314-25.878 0-46.857-21.251-46.857-47.465v-32.86c0-26.214 20.978-47.465 46.857-47.465z" fill="#ffbd8e"/></g><g><path d="m128.044 157.311c-26.939 0-48.856-22.19-48.856-49.465v-32.86c0-27.275 21.917-49.465 48.856-49.465s48.856 22.189 48.856 49.464v32.86c0 27.276-21.917 49.466-48.856 49.466zm0-127.79c-24.734 0-44.856 20.396-44.856 45.465v32.86c0 25.07 20.122 45.465 44.856 45.465s44.856-20.396 44.856-45.465v-32.86c0-25.07-20.122-45.465-44.856-45.465z" fill="#690589"/></g><g><path d="m81.188 109.027h-3.346c-9.736 0-17.658-7.921-17.658-17.658s7.921-17.659 17.658-17.659h3.346c1.104 0 2 .896 2 2v31.317c0 1.105-.896 2-2 2zm-3.346-31.317c-7.531 0-13.658 6.127-13.658 13.659s6.127 13.658 13.658 13.658h1.346v-27.317z" fill="#690589"/></g><g><path d="m178.245 109.027h-3.345c-1.104 0-2-.896-2-2v-31.317c0-1.104.896-2 2-2h3.345c9.737 0 17.659 7.922 17.659 17.659s-7.922 17.658-17.659 17.658zm-1.345-4h1.345c7.531 0 13.659-6.127 13.659-13.658s-6.128-13.659-13.659-13.659h-1.345z" fill="#690589"/></g><g><path d="m151.743 149.791-23.856 29.126 26.817 19.696 7.133-38.082z" fill="#f4efed"/></g><g><path d="m104.47 149.791 23.417 29.126-26.591 19.696-7.133-38.087z" fill="#f4efed"/></g><g><path d="m154.704 200.613c-.42 0-.835-.132-1.184-.388l-26.817-19.696c-.442-.325-.732-.817-.801-1.361s.09-1.093.438-1.518l23.856-29.126c.364-.446.903-.712 1.479-.732.604-.005 1.132.21 1.525.629l10.094 10.74c.438.465.626 1.11.509 1.738l-7.133 38.082c-.127.676-.592 1.239-1.231 1.492-.238.094-.487.14-.735.14zm-23.934-22.06 22.555 16.564 6.36-33.957-7.838-8.339z" fill="#690589"/></g><g><path d="m101.296 200.613c-.247 0-.494-.045-.73-.138-.642-.252-1.108-.816-1.235-1.494l-7.133-38.086c-.119-.635.076-1.288.523-1.753l10.308-10.735c.398-.415.959-.644 1.53-.613.574.025 1.11.297 1.471.745l23.416 29.126c.341.424.494.969.425 1.508s-.355 1.028-.793 1.352l-26.591 19.696c-.35.258-.769.392-1.191.392zm-4.978-39.444 6.355 33.934 22.351-16.555-20.687-25.731z" fill="#690589"/></g><g><path d="m42.178 218.253c-1.104 0-2-.896-2-2v-12.611c0-1.104.896-2 2-2s2 .896 2 2v12.611c0 1.105-.896 2-2 2z" fill="#690589"/></g><g><path d="m127.887 239.285c-.001 0-.003 0-.004 0-.657-.001-1.271-.325-1.645-.867l-26.591-38.672c-.61-.888-.407-2.099.458-2.74l26.591-19.696c.706-.522 1.67-.523 2.374-.005l26.817 19.696c.873.641 1.077 1.861.46 2.751l-26.817 38.672c-.374.54-.988.861-1.643.861zm-23.849-40.214 23.855 34.694 24.058-34.692-24.06-17.67z" fill="#690589"/></g><g><path d="m127.887 206.4c-.419 0-.837-.131-1.19-.393l-17.202-12.742c-.509-.377-.81-.973-.81-1.607s.301-1.23.81-1.607l17.202-12.742c.706-.522 1.67-.523 2.374-.005l17.349 12.742c.514.376.816.975.816 1.612s-.303 1.235-.816 1.612l-17.349 12.742c-.352.259-.768.388-1.184.388zm-13.842-14.741 13.847 10.256 13.965-10.256-13.965-10.256z" fill="#690589"/></g><g><path d="m127.887 239.285c-.001 0-.003 0-.004 0-.657-.001-1.271-.325-1.645-.867l-12.221-17.773c-.501-.73-.464-1.703.094-2.391l12.221-15.111c.378-.468.948-.741 1.551-.742h.004c.601 0 1.17.27 1.55.736l12.325 15.111c.563.691.602 1.671.094 2.404l-12.325 17.773c-.375.539-.989.86-1.644.86zm-9.727-19.677 9.733 14.157 9.817-14.156-9.817-12.037z" fill="#690589"/></g><g><path d="m85.899 43.008s14.973-3.179 27.454 6.115c16.129 12.011 51.132 23.924 67.604 6.986 0 0-8.046-39.421-46.705-39.421-38.66.001-48.353 26.32-48.353 26.32z" fill="#fcc24c"/></g><g><path d="m157.987 66.533c-3.997 0-7.871-.458-11.323-1.094-12.088-2.227-25.31-7.864-34.506-14.712-11.62-8.652-25.703-5.794-25.845-5.763-1.078.229-2.143-.46-2.371-1.541-.229-1.081.46-2.143 1.541-2.372.646-.138 16.009-3.254 29.063 6.468 6.846 5.098 19.068 11.449 32.842 13.986 9.874 1.819 23.47 2.119 32.135-6.79.77-.792 2.037-.809 2.828-.039.792.77.81 2.036.039 2.828-6.742 6.934-15.853 9.029-24.403 9.029z" fill="#690589"/></g></g></svg>